<?xml version="1.0" standalone="no"?>
<!DOCTYPE svg PUBLIC "-//W3C//DTD SVG 20010904//EN"
 "http://www.w3.org/TR/2001/REC-SVG-20010904/DTD/svg10.dtd">
<svg version="1.0" xmlns="http://www.w3.org/2000/svg"
 width="824.000000pt" height="824.000000pt" viewBox="0 0 824.000000 824.000000"
 preserveAspectRatio="xMidYMid meet">
<metadata>
Created by potrace 1.14, written by Peter Selinger 2001-2017
</metadata>
<g transform="translate(0.000000,824.000000) scale(0.100000,-0.100000)"
fill="#000000" stroke="none">
<path d="M6539 8236 c-2 -2 -23 -6 -46 -9 -76 -11 -206 -46 -270 -74 -21 -9
-40 -18 -43 -19 -35 -12 -70 -30 -70 -36 0 -4 -6 -8 -13 -8 -13 0 -121 -69
-173 -111 -71 -57 -204 -201 -246 -265 -89 -138 -165 -314 -182 -424 -3 -19
-9 -46 -12 -60 -11 -42 -14 -312 -5 -355 5 -22 12 -58 15 -79 8 -50 17 -88 25
-101 3 -5 7 -18 8 -28 4 -25 50 -132 86 -200 l31 -58 -205 -200 c-112 -110
-331 -325 -487 -477 -155 -152 -287 -278 -292 -280 -5 -2 -46 19 -92 46 -209
122 -412 191 -648 217 -14 2 -25 4 -25 5 0 5 -249 2 -305 -3 -63 -6 -151 -20
-197 -32 -13 -3 -31 -7 -42 -9 -52 -12 -167 -49 -176 -57 -5 -5 -15 -9 -22 -9
-40 0 -276 -133 -384 -215 l-55 -43 -75 57 c-40 31 -166 126 -279 211 -113 85
-207 157 -210 160 -3 3 -40 32 -83 64 -86 64 -82 54 -61 146 19 88 18 236 -2
344 -15 81 -83 255 -111 284 -7 7 -13 17 -13 22 0 5 -6 15 -13 22 -6 7 -25 31
-42 53 -38 51 -99 112 -150 150 -22 16 -42 32 -45 35 -18 19 -178 97 -216 106
-16 4 -35 11 -41 17 -7 5 -13 7 -13 4 0 -3 -19 0 -42 5 -24 5 -52 12 -63 14
-26 6 -211 6 -250 0 -248 -34 -480 -179 -619 -386 -56 -82 -109 -194 -122
-255 -1 -5 -9 -37 -17 -70 -15 -62 -17 -281 -3 -340 42 -186 121 -337 235
-453 70 -71 118 -112 131 -112 5 0 10 -4 10 -9 0 -11 199 -111 221 -111 9 0
19 -3 23 -7 6 -7 19 -10 61 -17 11 -1 30 -6 43 -10 73 -24 311 -10 417 24 17
6 33 10 38 10 4 0 24 9 44 20 21 11 41 20 45 20 4 0 33 15 65 34 51 30 60 32
73 20 8 -9 58 -47 110 -86 131 -98 254 -192 260 -198 3 -3 21 -17 40 -30 19
-13 60 -43 90 -67 30 -24 60 -46 65 -51 59 -44 115 -87 115 -88 0 -1 -11 -24
-24 -51 -75 -151 -114 -273 -150 -468 -24 -127 -23 -365 1 -505 11 -65 12 -72
19 -92 3 -11 7 -30 9 -41 11 -78 105 -312 168 -416 64 -106 97 -153 162 -229
29 -34 34 -63 13 -86 -18 -21 -118 -181 -124 -198 -3 -10 -10 -18 -15 -18 -5
0 -9 -4 -9 -9 0 -5 -59 -102 -130 -215 -72 -114 -130 -209 -130 -212 0 -3 -5
-10 -10 -17 -6 -7 -25 -34 -42 -62 -133 -214 -128 -207 -157 -199 -52 13 -89
17 -209 19 -67 2 -125 -1 -128 -6 -3 -5 -10 -7 -15 -4 -13 9 -150 -31 -225
-65 -36 -16 -95 -49 -132 -74 -73 -49 -182 -148 -182 -165 0 -6 -4 -11 -9 -11
-10 0 -99 -136 -123 -190 -34 -72 -66 -184 -75 -258 -7 -61 -7 -208 1 -247 17
-88 41 -175 48 -175 5 0 7 -3 4 -8 -6 -10 54 -130 98 -195 41 -62 112 -138
181 -193 55 -44 106 -78 117 -79 4 0 13 -6 19 -12 7 -7 17 -13 21 -13 5 0 27
-9 51 -20 119 -55 318 -84 452 -65 74 10 148 27 190 44 106 42 155 65 155 73
0 4 5 8 12 8 31 0 203 153 263 235 209 283 226 700 41 994 -27 42 -30 91 -6
91 6 0 10 4 10 10 0 5 31 59 70 121 38 61 70 115 70 119 0 5 4 10 8 12 4 2 29
37 54 78 85 140 327 525 337 537 6 7 11 17 11 22 0 27 22 22 140 -31 24 -11
49 -21 55 -23 5 -1 30 -8 55 -15 25 -7 50 -15 55 -16 32 -10 95 -23 130 -28
23 -4 52 -9 65 -11 70 -15 290 -20 375 -10 39 4 125 17 135 20 3 0 27 5 54 9
118 19 445 151 513 207 14 12 21 8 78 -43 17 -15 39 -35 51 -45 20 -17 156
-137 178 -158 32 -29 174 -154 194 -171 13 -10 38 -32 55 -49 31 -29 146 -132
197 -175 26 -23 123 -108 169 -150 53 -48 156 -139 193 -170 l37 -31 -29 -65
c-31 -67 -66 -176 -76 -227 -2 -17 -6 -33 -8 -36 -7 -11 -19 -135 -20 -215 -2
-70 3 -131 19 -231 15 -98 78 -277 122 -347 13 -21 23 -40 23 -44 0 -19 121
-173 189 -241 178 -178 409 -297 658 -337 81 -13 314 -15 383 -2 63 11 80 15
88 20 5 3 23 8 41 11 65 11 219 79 313 139 239 150 412 367 501 626 14 41 28
87 31 103 3 15 9 39 12 55 3 15 7 36 8 47 1 12 5 25 8 30 7 12 2 322 -5 350
-3 11 -13 53 -22 94 -27 116 -96 276 -156 363 -11 14 -19 31 -19 36 0 6 -3 12
-7 14 -5 1 -26 25 -48 53 -51 63 -127 140 -187 188 -77 62 -227 151 -273 163
-5 1 -30 11 -55 22 -25 12 -56 23 -70 26 -14 3 -50 12 -80 20 -134 36 -404 39
-521 6 -18 -5 -35 -8 -37 -5 -3 3 -10 1 -16 -4 -6 -4 -33 -14 -61 -21 -55 -14
-224 -91 -267 -121 -34 -25 -36 -24 -83 17 -141 127 -184 165 -213 190 -19 16
-50 44 -70 62 -21 19 -59 52 -86 75 -26 23 -63 56 -80 72 -18 17 -61 55 -96
85 -34 30 -75 66 -90 80 -14 14 -57 52 -96 85 -64 56 -107 94 -174 155 -15 14
-55 49 -88 78 l-61 54 34 46 c101 142 214 418 240 587 3 22 8 53 11 69 15 87
20 325 9 397 -3 20 -8 51 -10 70 -8 66 -14 94 -24 122 -6 15 -9 27 -6 27 2 0
-1 15 -6 33 -6 17 -12 39 -14 47 -18 79 -116 293 -178 394 l-25 40 117 114
c361 354 790 773 831 814 l47 47 56 -28 c30 -15 63 -31 74 -34 10 -3 45 -15
78 -27 33 -12 68 -24 78 -26 133 -31 190 -37 312 -37 117 0 181 8 287 34 80
19 226 73 243 90 5 5 15 9 22 9 8 0 19 4 26 10 7 5 48 33 92 62 105 68 257
221 328 329 105 162 171 339 193 525 11 94 6 263 -11 344 -8 41 -17 86 -19
100 -3 14 -16 57 -31 95 -14 39 -29 79 -32 90 -4 11 -19 42 -35 68 -15 26 -28
52 -28 57 0 6 -4 10 -10 10 -5 0 -10 5 -10 10 0 20 -105 156 -175 225 -134
134 -351 259 -520 301 -16 4 -34 8 -40 10 -67 18 -145 27 -266 29 -81 2 -148
2 -150 1z m274 -617 c31 -6 87 -28 127 -48 72 -36 188 -127 189 -147 1 -6 10
-19 21 -29 16 -14 92 -149 90 -157 -1 -2 1 -10 3 -18 19 -65 24 -97 26 -171 4
-170 -77 -359 -194 -454 -20 -16 -42 -35 -49 -40 -23 -21 -82 -54 -135 -75
-67 -26 -190 -50 -197 -38 -3 4 -13 4 -23 -2 -10 -5 -20 -8 -22 -6 -2 2 -25 6
-50 9 -92 11 -174 41 -257 95 -105 67 -205 199 -243 322 -44 139 -27 323 40
450 38 72 56 95 125 162 86 84 201 140 316 155 25 3 46 7 48 8 7 6 136 -4 185
-16z m-5563 -1198 c102 -52 160 -141 165 -250 2 -64 -1 -76 -32 -149 -20 -47
-78 -100 -140 -129 -60 -28 -158 -34 -208 -12 -16 7 -32 13 -35 13 -3 1 -24
14 -46 31 -184 132 -145 421 69 506 61 25 169 20 227 -10z m2600 -1307 c201
-7 458 -134 620 -305 85 -91 120 -139 170 -239 50 -100 75 -174 97 -295 11
-61 7 -304 -6 -355 -6 -25 -14 -54 -16 -64 -17 -75 -117 -293 -144 -316 -3 -3
-22 -25 -42 -50 -144 -177 -335 -299 -554 -351 -151 -35 -337 -33 -485 7 -30
8 -64 17 -75 19 -10 3 -61 26 -113 51 -200 99 -359 258 -459 459 -25 49 -54
122 -58 145 -1 3 -4 15 -9 28 -4 12 -9 34 -11 50 -2 15 -4 27 -5 27 -6 0 -12
60 -15 170 -3 128 -2 138 40 321 10 43 98 232 114 244 3 3 20 25 36 50 37 55
179 196 217 216 15 8 28 19 28 24 0 6 4 10 9 10 5 0 35 15 68 33 32 18 87 45
123 59 57 22 89 31 190 54 14 3 70 8 125 11 55 3 102 7 104 9 3 2 7 1 10 -3 3
-5 22 -9 41 -9z m3040 -3318 c101 -8 192 -46 286 -117 200 -151 277 -372 220
-632 -25 -113 -111 -238 -223 -325 -46 -36 -152 -88 -198 -97 -100 -20 -168
-24 -255 -12 -239 30 -457 250 -494 498 -8 52 -6 196 3 217 1 1 1 4 1 7 0 3 6
21 14 40 8 19 13 35 10 35 -3 0 12 32 33 72 88 166 267 291 453 315 25 3 46 7
48 8 2 2 15 1 30 -1 15 -2 47 -5 72 -8z m-5069 -338 c68 -31 114 -78 146 -146
89 -193 -63 -416 -276 -407 -237 9 -362 278 -218 470 33 44 107 93 154 101 15
3 29 7 31 8 11 12 118 -5 163 -26z"/>
</g>
</svg>
